<svg xmlns="http://www.w3.org/2000/svg" width="600" height="400" viewBox="0 0 600 400"><rect width="100%" height="100%" fill="#EEE"/><path fill="#AAA" d="M123.205 200.295h3.72q1.37 0 2.39-.34 1.01-.35 1.69-.98.67-.64 1.01-1.56.33-.91.33-2.04 0-1.08-.33-1.94-.34-.87-1-1.48-.67-.62-1.69-.94-1.01-.32-2.4-.32h-3.72zm-4.98-13.45h8.7q2.68 0 4.64.63t3.24 1.76q1.28 1.12 1.9 2.7.62 1.57.62 3.44 0 1.94-.65 3.56t-1.94 2.78q-1.3 1.17-3.25 1.82-1.95.64-4.56.64h-3.72v9.42h-4.98zm26.22 8.92.28 2.14q.88-1.7 2.11-2.67 1.22-.97 2.88-.97 1.32 0 2.11.57l-.3 3.42q-.09.34-.26.48-.18.13-.48.13-.27 0-.82-.09-.54-.09-1.06-.09-.76 0-1.35.22t-1.07.64q-.47.42-.83 1.01t-.67 1.35v11.69h-4.57v-18.98h2.68q.7 0 .98.25t.37.9m13.37 6.16h8.63q0-.89-.25-1.68-.25-.78-.75-1.38-.5-.59-1.27-.93t-1.79-.34q-1.98 0-3.11 1.13-1.14 1.12-1.46 3.2m11.66 2.75h-11.75q.11 1.46.52 2.53.41 1.06 1.07 1.76.67.69 1.59 1.03.91.34 2.02.34t1.92-.25q.8-.26 1.4-.58.6-.31 1.06-.57.45-.26.87-.26.58 0 .86.42l1.31 1.67q-.76.89-1.7 1.49-.95.6-1.97.96-1.03.36-2.09.51-1.07.15-2.07.15-1.98 0-3.68-.66t-2.96-1.94q-1.26-1.29-1.98-3.18-.72-1.9-.72-4.4 0-1.94.63-3.65t1.8-2.98q1.18-1.27 2.87-2.01t3.82-.74q1.8 0 3.31.58 1.52.57 2.61 1.67t1.71 2.7.62 3.66q0 1.03-.22 1.39t-.85.36m18-10.06h3.61l-7.53 18.98h-4.15l-7.53-18.98h3.78q.52 0 .86.24t.45.61l3.67 10.14q.29.89.51 1.74.23.85.39 1.7.19-.85.41-1.7t.54-1.74l3.73-10.14q.13-.37.46-.61.34-.24.8-.24m6.18 0h4.59v18.98h-4.59zm5.22-5.53q0 .59-.24 1.11t-.64.9q-.4.39-.94.62-.53.24-1.14.24-.6 0-1.12-.24-.53-.23-.92-.62-.39-.38-.62-.9t-.23-1.11q0-.61.23-1.15t.62-.92q.39-.39.92-.62.52-.24 1.12-.24.61 0 1.14.24.54.23.94.62.4.38.64.92t.24 1.15m7.64 12.84h8.62q0-.89-.25-1.68-.25-.78-.75-1.38-.5-.59-1.27-.93t-1.78-.34q-1.98 0-3.12 1.13-1.14 1.12-1.45 3.2m11.65 2.75h-11.75q.12 1.46.52 2.53.41 1.06 1.08 1.76.66.69 1.58 1.03.91.34 2.02.34t1.92-.25q.8-.26 1.4-.58.6-.31 1.06-.57.45-.26.88-.26.57 0 .85.42l1.31 1.67q-.76.89-1.7 1.49t-1.97.96-2.09.51q-1.07.15-2.06.15-1.98 0-3.69-.66-1.7-.66-2.96-1.94-1.25-1.29-1.98-3.18-.72-1.9-.72-4.4 0-1.94.63-3.65t1.81-2.98q1.17-1.27 2.86-2.01 1.7-.74 3.82-.74 1.8 0 3.32.58 1.51.57 2.6 1.67 1.1 1.1 1.72 2.7.61 1.6.61 3.66 0 1.03-.22 1.39t-.85.36m28.12-10.06h3.48l-6.03 18.98h-3.66q-.63 0-.87-.81l-3.41-10.97q-.16-.56-.3-1.11-.14-.54-.23-1.1-.12.56-.25 1.12-.14.57-.31 1.12l-3.46 10.94q-.22.81-.98.81h-3.51l-6.02-18.98h3.65q.5 0 .85.24t.46.61l2.72 10.14q.2.83.36 1.63.16.79.27 1.59.2-.8.43-1.59l.49-1.63 3.15-10.18q.11-.37.43-.61.33-.24.79-.24h2.02q.48 0 .82.24t.45.61l3.06 10.18q.24.83.45 1.64l.42 1.6q.24-1.58.68-3.24l2.79-10.14q.13-.37.47-.61.33-.24.79-.24m33.95-7.77h4.38v26.75h-2.55q-.59 0-.99-.19-.4-.2-.77-.66l-13.96-17.83q.11 1.22.11 2.25v16.43h-4.39v-26.75h2.61q.32 0 .55.03.23.02.4.11.18.08.35.24.16.16.37.41l14.02 17.91q-.06-.65-.09-1.27-.04-.63-.04-1.17zm18.02 7.47q2.11 0 3.84.69 1.73.68 2.96 1.94t1.89 3.07q.67 1.81.67 4.05 0 2.26-.67 4.07-.66 1.82-1.89 3.09-1.23 1.28-2.96 1.96-1.73.69-3.84.69-2.13 0-3.87-.69-1.74-.68-2.97-1.96-1.23-1.27-1.9-3.09-.68-1.81-.68-4.07 0-2.24.68-4.05.67-1.81 1.9-3.07t2.97-1.94q1.74-.69 3.87-.69m0 16.04q2.37 0 3.5-1.59 1.14-1.59 1.14-4.66t-1.14-4.68q-1.13-1.61-3.5-1.61-2.41 0-3.56 1.62-1.16 1.62-1.16 4.67t1.16 4.65q1.15 1.6 3.56 1.6m19.18 3.54q-2.48 0-3.8-1.4t-1.32-3.86v-10.6h-1.94q-.37 0-.63-.24t-.26-.72v-1.81l3.05-.5.96-5.18q.09-.37.35-.58.26-.2.67-.2h2.37v5.98h5.07v3.25h-5.07v10.29q0 .89.43 1.39.44.49 1.2.49.42 0 .71-.1.28-.1.5-.21.21-.11.38-.21.16-.1.33-.1.2 0 .33.1t.28.3l1.37 2.22q-1 .84-2.29 1.26-1.3.43-2.69.43m22.78-10.4h8.51l-3.26-8.9q-.24-.59-.5-1.41-.26-.81-.52-1.75-.24.94-.5 1.76-.26.83-.5 1.44zm6.79-16.65 10.5 26.75h-3.84q-.65 0-1.06-.32-.41-.33-.61-.81l-2-5.46h-11.08l-2 5.46q-.14.43-.57.78t-1.05.35h-3.89l10.53-26.75zm26.06 7.77h3.61l-7.53 18.98h-4.14l-7.53-18.98h3.77q.52 0 .86.24t.45.61l3.67 10.14q.29.89.52 1.74.22.85.38 1.7.19-.85.41-1.7t.54-1.74l3.73-10.14q.13-.37.47-.61.33-.24.79-.24m16.06 14.08v-3.2q-1.98.09-3.33.34t-2.16.64q-.82.39-1.17.9-.35.52-.35 1.13 0 1.21.71 1.72.71.52 1.86.52 1.41 0 2.43-.51 1.03-.51 2.01-1.54m-9.66-9.97-.81-1.47q3.27-2.99 7.88-2.99 1.67 0 2.98.54 1.31.55 2.22 1.52t1.38 2.32.47 2.96v11.99h-2.07q-.65 0-1-.19-.35-.2-.56-.79l-.4-1.37q-.73.65-1.41 1.14t-1.42.82-1.59.51q-.84.18-1.86.18-1.2 0-2.22-.33-1.01-.32-1.75-.97t-1.15-1.61-.41-2.24q0-.72.24-1.43t.79-1.36 1.41-1.22q.87-.57 2.14-1t2.95-.69q1.69-.27 3.85-.33v-1.11q0-1.9-.81-2.82-.82-.91-2.35-.91-1.11 0-1.84.25-.73.26-1.29.59-.55.32-1.01.58-.45.26-1.01.26-.48 0-.81-.25t-.54-.58m18.56-4.11h4.59v18.98h-4.59zm5.22-5.53q0 .59-.24 1.11-.25.52-.64.9-.4.39-.94.62-.53.24-1.14.24-.6 0-1.12-.24-.53-.23-.92-.62-.39-.38-.62-.9t-.23-1.11q0-.61.23-1.15t.62-.92q.39-.39.92-.62.52-.24 1.12-.24.61 0 1.14.24.54.23.94.62.39.38.64.92.24.54.24 1.15m4.08-2.98h4.57v27.49h-4.57zm19.17 22.59v-3.2q-1.98.09-3.33.34t-2.16.64q-.82.39-1.17.9-.35.52-.35 1.13 0 1.21.71 1.72.71.52 1.86.52 1.41 0 2.43-.51 1.03-.51 2.01-1.54m-9.66-9.97-.81-1.47q3.27-2.99 7.88-2.99 1.67 0 2.98.54 1.31.55 2.22 1.52t1.38 2.32.47 2.96v11.99h-2.07q-.65 0-1-.19-.35-.2-.56-.79l-.4-1.37q-.73.65-1.41 1.14t-1.42.82-1.59.51q-.84.18-1.86.18-1.2 0-2.22-.33-1.01-.32-1.75-.97t-1.15-1.61-.41-2.24q0-.72.24-1.43t.79-1.36 1.41-1.22q.87-.57 2.14-1t2.95-.69q1.69-.27 3.85-.33v-1.11q0-1.9-.81-2.82-.82-.91-2.35-.91-1.11 0-1.84.25-.73.26-1.29.59-.55.32-1.01.58-.45.26-1.01.26-.48 0-.81-.25t-.54-.58m22.98 1.44v8.51q.78.94 1.69 1.33.92.39 1.94.39 1.05 0 1.89-.38t1.44-1.18q.59-.81.9-2.06.32-1.25.32-2.98 0-3.13-1.04-4.53-1.03-1.39-2.98-1.39-1.31 0-2.29.6t-1.87 1.69m0-14.06v10.84q1.15-1.2 2.54-1.91 1.4-.72 3.2-.72 1.64 0 2.96.65 1.33.65 2.26 1.86.94 1.21 1.44 2.93.49 1.72.49 3.87 0 2.31-.57 4.2t-1.64 3.23q-1.06 1.34-2.56 2.08t-3.33.74q-.89 0-1.61-.18-.72-.17-1.33-.49-.61-.31-1.12-.77-.51-.45-.97-1l-.2 1.27q-.11.48-.38.69-.27.2-.73.2h-3.02v-27.49zm16.48 0h4.57v27.49h-4.57zm12.75 15.82h8.62q0-.89-.25-1.68-.25-.78-.75-1.38-.5-.59-1.27-.93-.76-.34-1.78-.34-1.98 0-3.12 1.13-1.14 1.12-1.45 3.2m11.66 2.75h-11.75q.11 1.46.52 2.53.4 1.06 1.07 1.76.66.69 1.58 1.03t2.03.34 1.91-.25q.81-.26 1.41-.58.6-.31 1.05-.57t.88-.26q.57 0 .85.42l1.31 1.67q-.75.89-1.7 1.49-.94.6-1.97.96-1.02.36-2.09.51-1.06.15-2.06.15-1.98 0-3.68-.66t-2.96-1.94q-1.26-1.29-1.98-3.18-.72-1.9-.72-4.4 0-1.94.63-3.65.62-1.71 1.8-2.98 1.17-1.27 2.87-2.01 1.69-.74 3.82-.74 1.79 0 3.31.58 1.52.57 2.61 1.67t1.71 2.7.62 3.66q0 1.03-.22 1.39-.23.36-.85.36"/></svg>